<svg xmlns="http://www.w3.org/2000/svg" version="1.1" width="103px" height="82px" 
    style="shape-rendering:geometricPrecision; text-rendering:geometricPrecision; 
    image-rendering:optimizeQuality; fill-rule:evenodd; clip-rule:evenodd" 
    xmlns:xlink="http://www.w3.org/1999/xlink">
  
  <!-- Background Shape -->
  <g>
    <path style="opacity:0.974" fill="#fdfdfd" d="M -0.5,-0.5 C 33.8333,-0.5 68.1667,-0.5 102.5,-0.5
       C 102.5,26.8333 102.5,54.1667 102.5,81.5 C 68.1667,81.5 33.8333,81.5 -0.5,81.5 
       C -0.5,54.1667 -0.5,26.8333 -0.5,-0.5 Z"/>
  </g>
  
  <!-- Yellow Section -->
  <g>
    <path style="opacity:1" fill="#eacc62" d="M 42.5,2.5 C 47.7616,2.19532 52.9283,2.52865 58,3.5
       C 58.4995,9.49076 58.6662,15.4908 58.5,21.5 C 51.5,21.5 44.5,21.5 37.5,21.5 
       C 37.5,28.5 37.5,35.5 37.5,42.5 C 31.5746,42.8082 25.7412,42.4749 20,41.5 
       C 16.7029,22.0771 24.2029,9.07706 42.5,2.5 Z"/>
  </g>
  
  <!-- Light Blue Section -->
  <g>
    <path style="opacity:1" fill="#9baff7" d="M 65.5,6.5 C 63.5203,18.4547 62.8536,30.788 63.5,43.5
       C 62.5046,31.011 62.1713,18.3443 62.5,5.5 C 63.791,5.26269 64.791,5.59603 65.5,6.5 Z"/>
  </g>
  
  <!-- Dark Blue Section -->
  <g>
    <path style="opacity:1" fill="#6381f4" d="M 65.5,6.5 C 80.2136,15.6173 85.047,28.6173 80,45.5
       C 77.888,49.2784 75.388,52.7784 72.5,56 C 70.8866,56.0885 69.7199,55.2552 69,53.5
       C 66.8882,50.2729 65.0549,46.9396 63.5,43.5 C 62.8536,30.788 63.5203,18.4547 65.5,6.5 Z"/>
  </g>
  
  <!-- Light Pink Section -->
  <g>
    <path style="opacity:1" fill="#e1709d" d="M 59.5,47.5 C 47.1201,46.8542 35.1201,47.5209 23.5,49.5
       C 22.596,48.791 22.2627,47.791 22.5,46.5 C 35.0113,46.1714 47.3446,46.5048 59.5,47.5 Z"/>
  </g>
  
  <!-- Dark Pink Section -->
  <g>
    <path style="opacity:1" fill="#da4a84" d="M 59.5,47.5 C 64.9703,55.1554 70.3037,62.9888 75.5,71
       C 70.5,71.6667 65.5,71.6667 60.5,71 C 59.5,69.3333 58.5,67.6667 57.5,66 
       C 42.5211,67.637 31.1877,62.137 23.5,49.5 C 35.1201,47.5209 47.1201,46.8542 59.5,47.5 Z"/>
  </g>

</svg>
